<svg width="164" height="48" viewBox="0 0 164 48" fill="none" xmlns="http://www.w3.org/2000/svg">
<g clip-path="url(#clip0_3_28)">
<path d="M68.2854 31.6995H58.0655L55.7399 36.2809H50.2073L62.7877 11.5751H64.233L75.8971 36.2809H70.4354L68.2854 31.6995ZM65.9597 26.7658L63.3876 21.2691L60.6038 26.7658H65.9597Z" fill="#E8E7EC"/>
<path d="M84.8134 25.8146C84.0019 25.604 82.4878 25.2157 81.0784 24.2645C79.1051 22.961 78.0122 21.0575 77.9064 18.6949C77.8005 16.7226 78.4354 14.9959 79.704 13.6564C81.5355 11.7529 84.1796 11.2239 85.4472 11.2239C89.0404 11.2239 91.0517 12.5274 92.8483 13.6902L93.6599 14.2193L91.0856 18.4134L90.2053 17.8495C88.6182 16.8284 87.5972 16.1576 85.4472 16.1576C85.1298 16.1576 83.8961 16.4042 83.2633 17.0739C83.0538 17.2845 82.8063 17.6707 82.8433 18.4833C82.8782 19.7519 83.7585 20.4565 86.0143 21.0184C86.2979 21.0893 86.5074 21.1612 86.719 21.23C89.0785 22.0415 90.9131 23.1324 92.1818 24.5068C93.4493 25.9172 94.1191 27.5731 94.1191 29.3348C94.1191 31.0615 93.3795 32.8592 92.1468 34.2336C90.7036 35.8535 88.6923 36.7687 86.4735 36.7687C85.3826 36.7687 83.8992 36.7 82.1386 36.1709C79.9188 35.4662 77.9455 34.2336 76.2537 32.436L79.8479 29.0533C82.456 31.8392 85.3805 31.8392 86.4735 31.8392C88.5187 31.8392 89.1853 29.9707 89.1853 29.3379C89.1853 27.9974 87.6691 26.7637 85.0991 25.8812L84.9922 25.8484L84.8134 25.8146Z" fill="#E8E7EC"/>
<path d="M115.401 11.5783V16.5121H108.565V36.282H103.632V16.5121H96.7611V11.5783H115.401Z" fill="#E8E7EC"/>
<path d="M131.121 36.2809L126.505 26.3785H124.038V36.246H119.105V11.5434H128.409C132.496 11.5434 135.809 14.8911 135.809 18.9784C135.809 21.9738 134.046 24.5481 131.473 25.7088L136.371 36.2809H131.121ZM124.037 16.4782V21.4458H128.406C129.781 21.4458 130.873 20.3528 130.873 18.9784C130.873 17.604 129.781 16.4782 128.406 16.4782H124.037V16.4782Z" fill="#E8E7EC"/>
<path d="M156.389 31.6996H146.168L143.846 36.281H138.313L150.893 11.5762H152.337L164 36.281H158.538L156.389 31.6996ZM154.062 26.7658L151.487 21.2692L148.702 26.7658H154.062Z" fill="#E8E7EC"/>
<path d="M23.5366 2.83873C29.1878 2.83873 34.5024 5.03951 38.5009 9.03476C42.4972 13.0321 44.6979 18.3478 44.6979 24C44.6979 29.6511 42.4961 34.9679 38.5009 38.9642C34.5035 42.9584 29.1899 45.1613 23.5366 45.1613C17.8855 45.1613 12.5709 42.9605 8.5735 38.9642C4.57824 34.969 2.37535 29.6533 2.37535 24C2.37535 18.3478 4.57719 13.0332 8.57244 9.03582C12.5709 5.03951 17.8855 2.83873 23.5366 2.83873ZM23.5366 0.463379C10.5373 0.463379 0 11.0017 0 24C0 36.9983 10.5373 47.5367 23.5366 47.5367C36.536 47.5367 47.0743 36.9983 47.0743 24C47.0743 11.0017 36.536 0.463379 23.5366 0.463379Z" fill="#E8E7EC"/>
<path d="M23.2541 10.9044C23.2541 10.9033 23.253 10.9033 23.2541 10.9044C19.2673 19.317 15.2805 27.7339 11.2948 36.1466C13.0025 36.1466 14.7113 36.1466 16.4201 36.1466C19.645 29.6332 22.8721 23.1176 26.0982 16.5999L23.2541 10.9044Z" fill="#E8E7EC"/>
<path d="M28.5677 21.3422C26.9224 24.7587 25.2771 28.1762 23.6318 31.5927L23.5366 31.7831H23.6318C25.2137 31.7831 26.7955 31.7831 28.3773 31.7831C29.01 33.238 29.6427 34.6949 30.2754 36.1498C32.1101 36.1498 33.9448 36.1498 35.7795 36.1498C33.3756 31.2118 30.9706 26.277 28.5677 21.3422Z" fill="#E8E7EC"/>
</g>
<defs>
<clipPath id="clip0_3_28">
<rect width="164" height="47.6129" fill="white" transform="translate(0 0.193542)"/>
</clipPath>
</defs>
</svg>
